<svg width="925" height="709" viewBox="0 0 925 709" fill="none" xmlns="http://www.w3.org/2000/svg">
<path d="M438.022 316.5L438.022 54C584.918 54 704 171.525 704 316.5H438.022Z" fill="#81B688" stroke="white"/>
<path d="M438.022 316.5L704 316.5C704 461.475 584.918 579 438.022 579C342.998 579 255.191 528.968 207.679 447.75L438.022 316.5Z" fill="#C2A83E" stroke="white"/>
<path d="M438.022 316.5L207.679 447.75C134.231 322.198 177.818 161.656 305.033 89.1683C345.467 66.1291 391.333 54 438.022 54V316.5Z" fill="#416546" stroke="white"/>
<ellipse cx="438" cy="315.482" rx="171.188" ry="168.95" fill="#E0EEC6"/>
<path d="M678.047 570.378V561.215H653.484V552.552L671.233 514.938H681.82L664.072 552.552H678.047V538.115H687.441V552.552H692.639V561.215H687.441V570.378H678.047ZM700.331 570.301V562.216L724.047 541.079C725.895 539.437 727.178 537.884 727.897 536.421C728.616 534.958 728.975 533.546 728.975 532.186C728.975 530.338 728.577 528.695 727.781 527.258C726.986 525.795 725.882 524.64 724.47 523.793C723.084 522.946 721.48 522.522 719.658 522.522C717.733 522.522 716.026 522.972 714.537 523.87C713.074 524.743 711.932 525.91 711.111 527.373C710.29 528.836 709.905 530.415 709.956 532.109H700.408C700.408 528.413 701.229 525.192 702.872 522.445C704.54 519.699 706.825 517.569 709.725 516.054C712.651 514.54 716.026 513.783 719.85 513.783C723.392 513.783 726.575 514.579 729.398 516.17C732.222 517.736 734.442 519.917 736.059 522.715C737.676 525.487 738.484 528.682 738.484 532.301C738.484 534.945 738.125 537.165 737.406 538.962C736.688 540.759 735.61 542.414 734.172 543.928C732.761 545.443 731.003 547.124 728.898 548.972L712.073 563.871L711.226 561.561H738.484V570.301H700.331ZM647.607 619.028C646.707 619.028 645.842 618.888 645.012 618.608C644.192 618.328 643.452 617.923 642.792 617.393C642.132 616.873 641.592 616.243 641.172 615.503L644.502 613.853C644.812 614.443 645.247 614.878 645.807 615.158C646.377 615.448 646.982 615.593 647.622 615.593C648.372 615.593 649.042 615.458 649.632 615.188C650.222 614.928 650.677 614.538 650.997 614.018C651.327 613.508 651.482 612.868 651.462 612.098V607.493H651.912V595.178H655.077V612.158C655.077 612.568 655.057 612.958 655.017 613.328C654.987 613.708 654.932 614.078 654.852 614.438C654.612 615.488 654.152 616.348 653.472 617.018C652.792 617.698 651.947 618.203 650.937 618.533C649.937 618.863 648.827 619.028 647.607 619.028ZM647.292 611.828C645.802 611.828 644.502 611.453 643.392 610.703C642.282 609.953 641.422 608.933 640.812 607.643C640.202 606.353 639.897 604.898 639.897 603.278C639.897 601.638 640.202 600.178 640.812 598.898C641.432 597.608 642.307 596.593 643.437 595.853C644.567 595.103 645.897 594.728 647.427 594.728C648.967 594.728 650.257 595.103 651.297 595.853C652.347 596.593 653.142 597.608 653.682 598.898C654.222 600.188 654.492 601.648 654.492 603.278C654.492 604.888 654.222 606.343 653.682 607.643C653.142 608.933 652.337 609.953 651.267 610.703C650.197 611.453 648.872 611.828 647.292 611.828ZM647.847 608.588C648.817 608.588 649.597 608.368 650.187 607.928C650.787 607.478 651.222 606.853 651.492 606.053C651.772 605.253 651.912 604.328 651.912 603.278C651.912 602.218 651.772 601.293 651.492 600.503C651.222 599.703 650.797 599.083 650.217 598.643C649.637 598.193 648.887 597.968 647.967 597.968C646.997 597.968 646.197 598.208 645.567 598.688C644.937 599.158 644.472 599.798 644.172 600.608C643.872 601.408 643.722 602.298 643.722 603.278C643.722 604.268 643.867 605.168 644.157 605.978C644.457 606.778 644.912 607.413 645.522 607.883C646.132 608.353 646.907 608.588 647.847 608.588ZM673.074 611.828C671.494 611.828 670.169 611.453 669.099 610.703C668.029 609.953 667.224 608.933 666.684 607.643C666.144 606.343 665.874 604.888 665.874 603.278C665.874 601.648 666.144 600.188 666.684 598.898C667.224 597.608 668.014 596.593 669.054 595.853C670.104 595.103 671.399 594.728 672.939 594.728C674.469 594.728 675.794 595.103 676.914 595.853C678.044 596.593 678.919 597.608 679.539 598.898C680.159 600.178 680.469 601.638 680.469 603.278C680.469 604.898 680.164 606.353 679.554 607.643C678.944 608.933 678.084 609.953 676.974 610.703C675.864 611.453 674.564 611.828 673.074 611.828ZM665.259 618.578V595.178H668.454V606.548H668.904V618.578H665.259ZM672.519 608.588C673.459 608.588 674.234 608.353 674.844 607.883C675.454 607.413 675.904 606.778 676.194 605.978C676.494 605.168 676.644 604.268 676.644 603.278C676.644 602.298 676.494 601.408 676.194 600.608C675.894 599.798 675.429 599.158 674.799 598.688C674.169 598.208 673.369 597.968 672.399 597.968C671.479 597.968 670.729 598.193 670.149 598.643C669.569 599.083 669.139 599.703 668.859 600.503C668.589 601.293 668.454 602.218 668.454 603.278C668.454 604.328 668.589 605.253 668.859 606.053C669.139 606.853 669.574 607.478 670.164 607.928C670.764 608.368 671.549 608.588 672.519 608.588ZM683.776 611.378V595.178H686.971V599.123L686.581 598.613C686.781 598.073 687.046 597.583 687.376 597.143C687.716 596.693 688.121 596.323 688.591 596.033C688.991 595.763 689.431 595.553 689.911 595.403C690.401 595.243 690.901 595.148 691.411 595.118C691.921 595.078 692.416 595.098 692.896 595.178V598.553C692.416 598.413 691.861 598.368 691.231 598.418C690.611 598.468 690.051 598.643 689.551 598.943C689.051 599.213 688.641 599.558 688.321 599.978C688.011 600.398 687.781 600.878 687.631 601.418C687.481 601.948 687.406 602.523 687.406 603.143V611.378H683.776ZM702.62 611.828C701 611.828 699.585 611.463 698.375 610.733C697.165 610.003 696.225 608.998 695.555 607.718C694.895 606.428 694.565 604.948 694.565 603.278C694.565 601.578 694.905 600.088 695.585 598.808C696.265 597.528 697.21 596.528 698.42 595.808C699.63 595.088 701.03 594.728 702.62 594.728C704.25 594.728 705.67 595.093 706.88 595.823C708.09 596.553 709.03 597.563 709.7 598.853C710.37 600.133 710.705 601.608 710.705 603.278C710.705 604.958 710.365 606.443 709.685 607.733C709.015 609.013 708.075 610.018 706.865 610.748C705.655 611.468 704.24 611.828 702.62 611.828ZM702.62 608.438C704.06 608.438 705.13 607.958 705.83 606.998C706.53 606.038 706.88 604.798 706.88 603.278C706.88 601.708 706.525 600.458 705.815 599.528C705.105 598.588 704.04 598.118 702.62 598.118C701.65 598.118 700.85 598.338 700.22 598.778C699.6 599.208 699.14 599.813 698.84 600.593C698.54 601.363 698.39 602.258 698.39 603.278C698.39 604.848 698.745 606.103 699.455 607.043C700.175 607.973 701.23 608.438 702.62 608.438ZM723.505 611.378C722.435 611.578 721.385 611.663 720.355 611.633C719.335 611.613 718.42 611.428 717.61 611.078C716.8 610.718 716.185 610.153 715.765 609.383C715.395 608.683 715.2 607.968 715.18 607.238C715.16 606.508 715.15 605.683 715.15 604.763V590.678H718.75V604.553C718.75 605.203 718.755 605.773 718.765 606.263C718.785 606.753 718.89 607.153 719.08 607.463C719.44 608.063 720.015 608.398 720.805 608.468C721.595 608.538 722.495 608.498 723.505 608.348V611.378ZM712.21 598.013V595.178H723.505V598.013H712.21ZM733.533 611.828C731.893 611.828 730.453 611.473 729.213 610.763C727.973 610.053 727.003 609.068 726.303 607.808C725.613 606.548 725.268 605.098 725.268 603.458C725.268 601.688 725.608 600.153 726.288 598.853C726.968 597.543 727.913 596.528 729.123 595.808C730.333 595.088 731.733 594.728 733.323 594.728C735.003 594.728 736.428 595.123 737.598 595.913C738.778 596.693 739.653 597.798 740.223 599.228C740.793 600.658 741.008 602.343 740.868 604.283H737.283V602.963C737.273 601.203 736.963 599.918 736.353 599.108C735.743 598.298 734.783 597.893 733.473 597.893C731.993 597.893 730.893 598.353 730.173 599.273C729.453 600.183 729.093 601.518 729.093 603.278C729.093 604.918 729.453 606.188 730.173 607.088C730.893 607.988 731.943 608.438 733.323 608.438C734.213 608.438 734.978 608.243 735.618 607.853C736.268 607.453 736.768 606.878 737.118 606.128L740.688 607.208C740.068 608.668 739.108 609.803 737.808 610.613C736.518 611.423 735.093 611.828 733.533 611.828ZM727.953 604.283V601.553H739.098V604.283H727.953ZM744.515 592.718V589.403H748.13V592.718H744.515ZM744.515 611.378V595.178H748.13V611.378H744.515ZM763.828 611.378V603.578C763.828 603.068 763.793 602.503 763.723 601.883C763.653 601.263 763.488 600.668 763.228 600.098C762.978 599.518 762.598 599.043 762.088 598.673C761.588 598.303 760.908 598.118 760.048 598.118C759.588 598.118 759.133 598.193 758.683 598.343C758.233 598.493 757.823 598.753 757.453 599.123C757.093 599.483 756.803 599.983 756.583 600.623C756.363 601.253 756.253 602.063 756.253 603.053L754.108 602.138C754.108 600.758 754.373 599.508 754.903 598.388C755.443 597.268 756.233 596.378 757.273 595.718C758.313 595.048 759.593 594.713 761.113 594.713C762.313 594.713 763.303 594.913 764.083 595.313C764.863 595.713 765.483 596.223 765.943 596.843C766.403 597.463 766.743 598.123 766.963 598.823C767.183 599.523 767.323 600.188 767.383 600.818C767.453 601.438 767.488 601.943 767.488 602.333V611.378H763.828ZM752.593 611.378V595.178H755.818V600.203H756.253V611.378H752.593Z" fill="#243E36"/>
<path d="M747.561 200.061V152.981L736.761 159.581V148.941L747.561 142.461H757.401V200.061H747.561ZM791.479 201.261C787.666 201.261 784.279 200.488 781.319 198.941C778.359 197.394 776.039 195.248 774.359 192.501C772.679 189.754 771.839 186.608 771.839 183.061C771.839 179.888 772.572 176.941 774.039 174.221C775.506 171.501 777.652 169.328 780.479 167.701L780.279 170.781C778.066 169.101 776.346 167.168 775.119 164.981C773.919 162.768 773.319 160.288 773.319 157.541C773.319 154.234 774.092 151.368 775.639 148.941C777.212 146.514 779.359 144.634 782.079 143.301C784.799 141.941 787.932 141.261 791.479 141.261C795.026 141.261 798.159 141.941 800.879 143.301C803.626 144.634 805.772 146.514 807.319 148.941C808.892 151.368 809.679 154.234 809.679 157.541C809.679 160.288 809.092 162.754 807.919 164.941C806.772 167.128 805.026 169.101 802.679 170.861L802.639 167.741C805.412 169.314 807.532 171.474 808.999 174.221C810.492 176.941 811.239 179.888 811.239 183.061C811.239 186.608 810.386 189.754 808.679 192.501C806.999 195.248 804.666 197.394 801.679 198.941C798.719 200.488 795.319 201.261 791.479 201.261ZM791.479 192.181C794.306 192.181 796.599 191.408 798.359 189.861C800.146 188.314 801.039 186.048 801.039 183.061C801.039 180.074 800.159 177.808 798.399 176.261C796.639 174.688 794.332 173.901 791.479 173.901C788.652 173.901 786.372 174.688 784.639 176.261C782.906 177.808 782.039 180.074 782.039 183.061C782.039 186.048 782.906 188.314 784.639 189.861C786.372 191.408 788.652 192.181 791.479 192.181ZM791.479 164.741C793.852 164.741 795.772 164.154 797.239 162.981C798.732 161.781 799.479 159.968 799.479 157.541C799.479 155.114 798.732 153.314 797.239 152.141C795.772 150.941 793.852 150.341 791.479 150.341C789.132 150.341 787.212 150.941 785.719 152.141C784.252 153.314 783.519 155.114 783.519 157.541C783.519 159.968 784.252 161.781 785.719 162.981C787.212 164.154 789.132 164.741 791.479 164.741ZM749.968 248.711C749.068 248.711 748.203 248.571 747.373 248.291C746.553 248.011 745.813 247.606 745.153 247.076C744.493 246.556 743.953 245.926 743.533 245.186L746.863 243.536C747.173 244.126 747.608 244.561 748.168 244.841C748.738 245.131 749.343 245.276 749.983 245.276C750.733 245.276 751.403 245.141 751.993 244.871C752.583 244.611 753.038 244.221 753.358 243.701C753.688 243.191 753.843 242.551 753.823 241.781V237.176H754.273V224.861H757.438V241.841C757.438 242.251 757.418 242.641 757.378 243.011C757.348 243.391 757.293 243.761 757.213 244.121C756.973 245.171 756.513 246.031 755.833 246.701C755.153 247.381 754.308 247.886 753.298 248.216C752.298 248.546 751.188 248.711 749.968 248.711ZM749.653 241.511C748.163 241.511 746.863 241.136 745.753 240.386C744.643 239.636 743.783 238.616 743.173 237.326C742.563 236.036 742.258 234.581 742.258 232.961C742.258 231.321 742.563 229.861 743.173 228.581C743.793 227.291 744.668 226.276 745.798 225.536C746.928 224.786 748.258 224.411 749.788 224.411C751.328 224.411 752.618 224.786 753.658 225.536C754.708 226.276 755.503 227.291 756.043 228.581C756.583 229.871 756.853 231.331 756.853 232.961C756.853 234.571 756.583 236.026 756.043 237.326C755.503 238.616 754.698 239.636 753.628 240.386C752.558 241.136 751.233 241.511 749.653 241.511ZM750.208 238.271C751.178 238.271 751.958 238.051 752.548 237.611C753.148 237.161 753.583 236.536 753.853 235.736C754.133 234.936 754.273 234.011 754.273 232.961C754.273 231.901 754.133 230.976 753.853 230.186C753.583 229.386 753.158 228.766 752.578 228.326C751.998 227.876 751.248 227.651 750.328 227.651C749.358 227.651 748.558 227.891 747.928 228.371C747.298 228.841 746.833 229.481 746.533 230.291C746.233 231.091 746.083 231.981 746.083 232.961C746.083 233.951 746.228 234.851 746.518 235.661C746.818 236.461 747.273 237.096 747.883 237.566C748.493 238.036 749.268 238.271 750.208 238.271ZM769.06 241.061V224.606C769.06 224.196 769.075 223.746 769.105 223.256C769.135 222.756 769.22 222.261 769.36 221.771C769.5 221.281 769.755 220.836 770.125 220.436C770.585 219.926 771.08 219.576 771.61 219.386C772.15 219.186 772.68 219.076 773.2 219.056C773.72 219.026 774.175 219.011 774.565 219.011H776.59V221.951H774.715C774.025 221.951 773.51 222.126 773.17 222.476C772.84 222.816 772.675 223.266 772.675 223.826V241.061H769.06ZM766.45 227.696V224.861H776.59V227.696H766.45ZM783.078 241.511C781.908 241.511 780.918 241.291 780.108 240.851C779.298 240.401 778.683 239.806 778.263 239.066C777.853 238.326 777.648 237.511 777.648 236.621C777.648 235.841 777.778 235.141 778.038 234.521C778.298 233.891 778.698 233.351 779.238 232.901C779.778 232.441 780.478 232.066 781.338 231.776C781.988 231.566 782.748 231.376 783.618 231.206C784.498 231.036 785.448 230.881 786.468 230.741C787.498 230.591 788.573 230.431 789.693 230.261L788.403 230.996C788.413 229.876 788.163 229.051 787.653 228.521C787.143 227.991 786.283 227.726 785.073 227.726C784.343 227.726 783.638 227.896 782.958 228.236C782.278 228.576 781.803 229.161 781.533 229.991L778.233 228.956C778.633 227.586 779.393 226.486 780.513 225.656C781.643 224.826 783.163 224.411 785.073 224.411C786.513 224.411 787.778 224.646 788.868 225.116C789.968 225.586 790.783 226.356 791.313 227.426C791.603 227.996 791.778 228.581 791.838 229.181C791.898 229.771 791.928 230.416 791.928 231.116V241.061H788.763V237.551L789.288 238.121C788.558 239.291 787.703 240.151 786.723 240.701C785.753 241.241 784.538 241.511 783.078 241.511ZM783.798 238.631C784.618 238.631 785.318 238.486 785.898 238.196C786.478 237.906 786.938 237.551 787.278 237.131C787.628 236.711 787.863 236.316 787.983 235.946C788.173 235.486 788.278 234.961 788.298 234.371C788.328 233.771 788.343 233.286 788.343 232.916L789.453 233.246C788.363 233.416 787.428 233.566 786.648 233.696C785.868 233.826 785.198 233.951 784.638 234.071C784.078 234.181 783.583 234.306 783.153 234.446C782.733 234.596 782.378 234.771 782.088 234.971C781.798 235.171 781.573 235.401 781.413 235.661C781.263 235.921 781.188 236.226 781.188 236.576C781.188 236.976 781.288 237.331 781.488 237.641C781.688 237.941 781.978 238.181 782.358 238.361C782.748 238.541 783.228 238.631 783.798 238.631ZM805.328 241.061C804.258 241.261 803.208 241.346 802.178 241.316C801.158 241.296 800.243 241.111 799.433 240.761C798.623 240.401 798.008 239.836 797.588 239.066C797.218 238.366 797.023 237.651 797.003 236.921C796.983 236.191 796.973 235.366 796.973 234.446V220.361H800.573V234.236C800.573 234.886 800.578 235.456 800.588 235.946C800.608 236.436 800.713 236.836 800.903 237.146C801.263 237.746 801.838 238.081 802.628 238.151C803.418 238.221 804.318 238.181 805.328 238.031V241.061ZM794.033 227.696V224.861H805.328V227.696H794.033ZM815.067 241.511C813.067 241.511 811.442 241.061 810.192 240.161C808.942 239.261 808.182 237.996 807.912 236.366L811.602 235.796C811.792 236.596 812.212 237.226 812.862 237.686C813.512 238.146 814.332 238.376 815.322 238.376C816.192 238.376 816.862 238.206 817.332 237.866C817.812 237.516 818.052 237.041 818.052 236.441C818.052 236.071 817.962 235.776 817.782 235.556C817.612 235.326 817.232 235.106 816.642 234.896C816.052 234.686 815.147 234.421 813.927 234.101C812.567 233.741 811.487 233.356 810.687 232.946C809.887 232.526 809.312 232.031 808.962 231.461C808.612 230.891 808.437 230.201 808.437 229.391C808.437 228.381 808.702 227.501 809.232 226.751C809.762 226.001 810.502 225.426 811.452 225.026C812.402 224.616 813.522 224.411 814.812 224.411C816.072 224.411 817.187 224.606 818.157 224.996C819.137 225.386 819.927 225.941 820.527 226.661C821.127 227.381 821.497 228.226 821.637 229.196L817.947 229.856C817.857 229.166 817.542 228.621 817.002 228.221C816.472 227.821 815.762 227.596 814.872 227.546C814.022 227.496 813.337 227.626 812.817 227.936C812.297 228.236 812.037 228.661 812.037 229.211C812.037 229.521 812.142 229.786 812.352 230.006C812.562 230.226 812.982 230.446 813.612 230.666C814.252 230.886 815.202 231.156 816.462 231.476C817.752 231.806 818.782 232.186 819.552 232.616C820.332 233.036 820.892 233.541 821.232 234.131C821.582 234.721 821.757 235.436 821.757 236.276C821.757 237.906 821.162 239.186 819.972 240.116C818.792 241.046 817.157 241.511 815.067 241.511Z" fill="#243E36"/>
<path d="M107.785 85.9635V40.649L97.39 47.0015V36.7605L107.785 30.5235H117.256V85.9635H107.785ZM151.866 87.1185C147.939 87.1185 144.474 86.2843 141.471 84.616C138.468 82.922 136.119 80.5735 134.425 77.5705C132.757 74.5675 131.923 71.1025 131.923 67.1755V49.3115C131.923 45.3845 132.757 41.9195 134.425 38.9165C136.119 35.9135 138.468 33.5778 141.471 31.9095C144.474 30.2155 147.939 29.3685 151.866 29.3685C155.793 29.3685 159.245 30.2155 162.222 31.9095C165.225 33.5778 167.574 35.9135 169.268 38.9165C170.962 41.9195 171.809 45.3845 171.809 49.3115V67.1755C171.809 71.1025 170.962 74.5675 169.268 77.5705C167.574 80.5735 165.225 82.922 162.222 84.616C159.245 86.2843 155.793 87.1185 151.866 87.1185ZM151.866 78.302C153.816 78.302 155.587 77.84 157.179 76.916C158.77 75.9663 160.028 74.7087 160.952 73.143C161.876 71.5517 162.338 69.7807 162.338 67.83V48.6185C162.338 46.6422 161.876 44.8712 160.952 43.3055C160.028 41.7142 158.77 40.4565 157.179 39.5325C155.587 38.5828 153.816 38.108 151.866 38.108C149.915 38.108 148.144 38.5828 146.553 39.5325C144.961 40.4565 143.704 41.7142 142.78 43.3055C141.856 44.8712 141.394 46.6422 141.394 48.6185V67.83C141.394 69.7807 141.856 71.5517 142.78 73.143C143.704 74.7087 144.961 75.9663 146.553 76.916C148.144 77.84 149.915 78.302 151.866 78.302ZM99.3661 134.614C98.4661 134.614 97.6011 134.474 96.7711 134.194C95.9511 133.914 95.2111 133.509 94.5511 132.979C93.8911 132.459 93.3511 131.829 92.9311 131.089L96.2611 129.439C96.5711 130.029 97.0061 130.464 97.5661 130.744C98.1361 131.034 98.7411 131.179 99.3811 131.179C100.131 131.179 100.801 131.044 101.391 130.774C101.981 130.514 102.436 130.124 102.756 129.604C103.086 129.094 103.241 128.454 103.221 127.684V123.079H103.671V110.764H106.836V127.744C106.836 128.154 106.816 128.544 106.776 128.914C106.746 129.294 106.691 129.664 106.611 130.024C106.371 131.074 105.911 131.934 105.231 132.604C104.551 133.284 103.706 133.789 102.696 134.119C101.696 134.449 100.586 134.614 99.3661 134.614ZM99.0511 127.414C97.5611 127.414 96.2611 127.039 95.1511 126.289C94.0411 125.539 93.1811 124.519 92.5711 123.229C91.9611 121.939 91.6561 120.484 91.6561 118.864C91.6561 117.224 91.9611 115.764 92.5711 114.484C93.1911 113.194 94.0661 112.179 95.1961 111.438C96.3261 110.689 97.6561 110.314 99.1861 110.314C100.726 110.314 102.016 110.689 103.056 111.438C104.106 112.179 104.901 113.194 105.441 114.484C105.981 115.774 106.251 117.234 106.251 118.864C106.251 120.474 105.981 121.929 105.441 123.229C104.901 124.519 104.096 125.539 103.026 126.289C101.956 127.039 100.631 127.414 99.0511 127.414ZM99.6061 124.174C100.576 124.174 101.356 123.954 101.946 123.514C102.546 123.064 102.981 122.439 103.251 121.639C103.531 120.839 103.671 119.914 103.671 118.864C103.671 117.804 103.531 116.879 103.251 116.089C102.981 115.289 102.556 114.669 101.976 114.229C101.396 113.779 100.646 113.554 99.7261 113.554C98.7561 113.554 97.9561 113.794 97.3261 114.274C96.6961 114.744 96.2311 115.384 95.9311 116.194C95.6311 116.994 95.4811 117.884 95.4811 118.864C95.4811 119.854 95.6261 120.754 95.9161 121.564C96.2161 122.364 96.6711 122.999 97.2811 123.469C97.8911 123.939 98.6661 124.174 99.6061 124.174ZM124.083 127.414C122.413 127.414 120.988 127.044 119.808 126.304C118.628 125.554 117.723 124.534 117.093 123.244C116.473 121.954 116.158 120.494 116.148 118.864C116.158 117.204 116.483 115.734 117.123 114.454C117.773 113.164 118.693 112.154 119.883 111.424C121.073 110.684 122.488 110.314 124.128 110.314C125.968 110.314 127.523 110.779 128.793 111.708C130.073 112.628 130.908 113.889 131.298 115.489L127.698 116.464C127.418 115.594 126.953 114.919 126.303 114.439C125.653 113.949 124.913 113.704 124.083 113.704C123.143 113.704 122.368 113.929 121.758 114.379C121.148 114.819 120.698 115.429 120.408 116.209C120.118 116.989 119.973 117.874 119.973 118.864C119.973 120.404 120.318 121.649 121.008 122.599C121.698 123.549 122.723 124.024 124.083 124.024C125.043 124.024 125.798 123.804 126.348 123.364C126.908 122.924 127.328 122.289 127.608 121.459L131.298 122.284C130.798 123.934 129.923 125.204 128.673 126.094C127.423 126.974 125.893 127.414 124.083 127.414ZM138.57 127.414C137.4 127.414 136.41 127.194 135.6 126.754C134.79 126.304 134.175 125.709 133.755 124.969C133.345 124.229 133.14 123.414 133.14 122.524C133.14 121.744 133.27 121.044 133.53 120.424C133.79 119.794 134.19 119.254 134.73 118.804C135.27 118.344 135.97 117.969 136.83 117.679C137.48 117.469 138.24 117.279 139.11 117.109C139.99 116.939 140.94 116.784 141.96 116.644C142.99 116.494 144.065 116.334 145.185 116.164L143.895 116.899C143.905 115.779 143.655 114.954 143.145 114.424C142.635 113.894 141.775 113.629 140.565 113.629C139.835 113.629 139.13 113.799 138.45 114.139C137.77 114.479 137.295 115.064 137.025 115.894L133.725 114.859C134.125 113.489 134.885 112.388 136.005 111.558C137.135 110.729 138.655 110.314 140.565 110.314C142.005 110.314 143.27 110.549 144.36 111.018C145.46 111.489 146.275 112.259 146.805 113.329C147.095 113.899 147.27 114.484 147.33 115.084C147.39 115.674 147.42 116.319 147.42 117.019V126.964H144.255V123.454L144.78 124.024C144.05 125.194 143.195 126.054 142.215 126.604C141.245 127.144 140.03 127.414 138.57 127.414ZM139.29 124.534C140.11 124.534 140.81 124.389 141.39 124.099C141.97 123.809 142.43 123.454 142.77 123.034C143.12 122.614 143.355 122.219 143.475 121.849C143.665 121.389 143.77 120.864 143.79 120.274C143.82 119.674 143.835 119.189 143.835 118.819L144.945 119.149C143.855 119.319 142.92 119.469 142.14 119.599C141.36 119.729 140.69 119.854 140.13 119.974C139.57 120.084 139.075 120.209 138.645 120.349C138.225 120.499 137.87 120.674 137.58 120.874C137.29 121.074 137.065 121.304 136.905 121.564C136.755 121.824 136.68 122.129 136.68 122.479C136.68 122.879 136.78 123.234 136.98 123.544C137.18 123.844 137.47 124.084 137.85 124.264C138.24 124.444 138.72 124.534 139.29 124.534ZM151.326 126.964V110.764H154.521V114.709L154.131 114.199C154.331 113.659 154.596 113.169 154.926 112.729C155.266 112.279 155.671 111.909 156.141 111.619C156.541 111.349 156.981 111.138 157.461 110.989C157.951 110.828 158.451 110.733 158.961 110.703C159.471 110.663 159.966 110.684 160.446 110.764V114.139C159.966 113.999 159.411 113.954 158.781 114.004C158.161 114.054 157.601 114.229 157.101 114.529C156.601 114.799 156.191 115.144 155.871 115.564C155.561 115.984 155.331 116.464 155.181 117.004C155.031 117.534 154.956 118.109 154.956 118.729V126.964H151.326ZM171.093 127.414C169.513 127.414 168.188 127.039 167.118 126.289C166.048 125.539 165.243 124.519 164.703 123.229C164.163 121.929 163.893 120.474 163.893 118.864C163.893 117.234 164.163 115.774 164.703 114.484C165.243 113.194 166.033 112.179 167.073 111.438C168.123 110.689 169.418 110.314 170.958 110.314C172.488 110.314 173.813 110.689 174.933 111.438C176.063 112.179 176.938 113.194 177.558 114.484C178.178 115.764 178.488 117.224 178.488 118.864C178.488 120.484 178.183 121.939 177.573 123.229C176.963 124.519 176.103 125.539 174.993 126.289C173.883 127.039 172.583 127.414 171.093 127.414ZM163.278 126.964V105.364H166.923V115.594H166.473V126.964H163.278ZM170.538 124.174C171.478 124.174 172.253 123.939 172.863 123.469C173.473 122.999 173.923 122.364 174.213 121.564C174.513 120.754 174.663 119.854 174.663 118.864C174.663 117.884 174.513 116.994 174.213 116.194C173.913 115.384 173.448 114.744 172.818 114.274C172.188 113.794 171.388 113.554 170.418 113.554C169.498 113.554 168.748 113.779 168.168 114.229C167.588 114.669 167.158 115.289 166.878 116.089C166.608 116.879 166.473 117.804 166.473 118.864C166.473 119.914 166.608 120.839 166.878 121.639C167.158 122.439 167.593 123.064 168.183 123.514C168.783 123.954 169.568 124.174 170.538 124.174ZM187.668 127.414C185.668 127.414 184.043 126.964 182.793 126.064C181.543 125.164 180.783 123.899 180.513 122.269L184.203 121.699C184.393 122.499 184.813 123.129 185.463 123.589C186.113 124.049 186.933 124.279 187.923 124.279C188.793 124.279 189.463 124.109 189.933 123.769C190.413 123.419 190.653 122.944 190.653 122.344C190.653 121.974 190.563 121.679 190.383 121.459C190.213 121.229 189.833 121.009 189.243 120.799C188.653 120.589 187.748 120.324 186.528 120.004C185.168 119.644 184.088 119.259 183.288 118.849C182.488 118.429 181.913 117.934 181.563 117.364C181.213 116.794 181.038 116.104 181.038 115.294C181.038 114.284 181.303 113.404 181.833 112.654C182.363 111.904 183.103 111.329 184.053 110.929C185.003 110.519 186.123 110.314 187.413 110.314C188.673 110.314 189.788 110.509 190.758 110.898C191.738 111.288 192.528 111.844 193.128 112.564C193.728 113.284 194.098 114.129 194.238 115.099L190.548 115.759C190.458 115.069 190.143 114.524 189.603 114.123C189.073 113.724 188.363 113.499 187.473 113.449C186.623 113.399 185.938 113.529 185.418 113.839C184.898 114.139 184.638 114.564 184.638 115.114C184.638 115.424 184.743 115.689 184.953 115.909C185.163 116.129 185.583 116.349 186.213 116.569C186.853 116.789 187.803 117.059 189.063 117.379C190.353 117.709 191.383 118.089 192.153 118.519C192.933 118.939 193.493 119.444 193.833 120.034C194.183 120.624 194.358 121.339 194.358 122.179C194.358 123.809 193.763 125.089 192.573 126.019C191.393 126.949 189.758 127.414 187.668 127.414Z" fill="#243E36"/>
</svg>
